<svg xmlns="http://www.w3.org/2000/svg" width="205.31664mm" height="74.712891mm" viewBox="0 0 205.31664 74.712891"><path fill="#959595" fill-rule="evenodd" d="M103.807665.701898l-39.27461 74.01099h78.808112zm-.0568 14.94638l7.87445 14.84302-15.84399.0703zm-11.84528 22.1666l23.69055.16072 6.01978 11.34659-35.87739.0326zm33.42949 18.51774l6.12676 11.54761-55.6364.0253 6.16448-11.53521z"/><path fill="#189c89" d="M0 37.339888V0h13.701933v16.269148c0 16.97314.04441 17.46089 1.53896 16.89946.616449-.23158 3.619206-5.18176 12.910665-21.28383L34.9954784.024293l8.4426286-.01213 8.442625-.01213-1.069195 1.540727c-5.8096762 8.371838-20.4418461 30.807178-20.4304901 31.325878.00798.36672 4.916635 9.88395 10.9080045 21.14936l10.8934036 20.48254-8.0120815.0981c-4.4066441.0538-8.1301325-.0278-8.2744193-.18127-.1442869-.15354-3.3868841-6.76377-7.2057712-14.68944-5.943452-12.33493-7.056069-14.40848-7.725519-14.39766-.541918.008-1.634998 1.08368-3.559505 3.50042-1.52758 1.91829-2.97982 3.82945-3.2272 4.24702-.323521.54609-.453464 3.68498-.462903 11.18177l-.01312 10.42253H.000003zM162.630557 37.326318V.01338h42.68608v11.221588l-14.25936.0947-14.25936.0947-.0983 9.57475c-.0762 7.41851.006 9.64035.36799 9.86607.25642.16024 5.72378.29382 12.14969.29687l11.68348.005v10.49568l-12.05146.0954-12.05146.0955v21.7357l14.25936.0947 14.25936.0947v10.85934h-42.68608z"/></svg>